<svg height="852pt" viewBox="-26 -26 852.49997 852" width="852pt" xmlns="http://www.w3.org/2000/svg"><path d="m537.8125 379.316406-502.105469-376.195312c-7.097656-5.316406-16.597656-6.167969-24.527343-2.195313-7.929688 3.972657-12.933594 12.085938-12.929688 20.953125l.515625 626.992188c.011719 9.71875 6.019531 18.421875 15.101563 21.871094 2.707031 1.023437 5.527343 1.527343 8.3125 1.527343 6.558593 0 12.972656-2.761719 17.5-7.859375l194.421874-218.71875 291.617188-24.300781c9.695312-.804687 17.875-7.519531 20.558594-16.867187 2.6875-9.34375-.679688-19.378907-8.464844-25.207032zm0 0"/><path d="m774.054688 750.832031c-9.921876 0-19.242188-3.855469-26.253907-10.875l-25.570312-25.566406v-92.289063h14.210937c12.925782 0 23.414063-10.484374 23.414063-23.414062 0-12.925781-10.488281-23.414062-23.414063-23.414062h-14.210937v-92.277344l25.578125-25.578125c7.003906-7.007813 16.324218-10.871094 26.246094-10.871094 12.933593 0 23.414062-10.480469 23.414062-23.414063 0-12.933593-10.480469-23.417968-23.414062-23.417968-22.433594 0-43.515626 8.734375-59.363282 24.597656l-15.875 15.867188-15.863281-15.863282c-15.851563-15.867187-36.941406-24.601562-59.371094-24.601562-12.9375 0-23.414062 10.484375-23.414062 23.417968 0 12.933594 10.476562 23.414063 23.414062 23.414063 9.914063 0 19.246094 3.863281 26.25 10.878906l25.570313 25.570313v92.277344h-14.203125c-12.933594 0-23.417969 10.488281-23.417969 23.414062 0 12.929688 10.484375 23.414062 23.417969 23.414062h14.203125v92.289063l-25.574219 25.570313c-7 7.015624-16.332031 10.871093-26.246094 10.871093-12.9375 0-23.414062 10.484375-23.414062 23.417969 0 12.929688 10.476562 23.414062 23.414062 23.414062 22.429688 0 43.519531-8.738281 59.367188-24.589843l15.867187-15.875 15.867188 15.867187c15.855468 15.859375 36.9375 24.597656 59.371094 24.597656 12.933593 0 23.414062-10.484374 23.414062-23.414062 0-12.933594-10.480469-23.417969-23.414062-23.417969zm0 0"/></svg>